<svg width="56" height="56" viewBox="0 0 56 56" fill="none" xmlns="http://www.w3.org/2000/svg">
<circle cx="28" cy="28" r="26.5" fill="url(#paint0_linear_12_115)" fill-opacity="0.15" stroke="white" stroke-width="3"/>
<mask id="mask0_12_115" style="mask-type:luminance" maskUnits="userSpaceOnUse" x="14" y="16" width="28" height="24">
<path d="M31.8337 26.682L29.236 30.8109C29.1297 30.9582 29.0005 31.0874 28.8532 31.1937C28.4976 31.4418 28.0586 31.5396 27.6313 31.466C27.2041 31.3923 26.8231 31.1531 26.5711 30.8004C26.3191 30.4476 26.2164 30.0096 26.2853 29.5816C26.3542 29.1536 26.5891 28.77 26.9391 28.5141L31.068 25.9164C31.1619 25.851 31.2735 25.8159 31.3879 25.8159C31.5024 25.8159 31.614 25.851 31.7078 25.9164C31.8257 26.0015 31.9052 26.1298 31.9287 26.2733C31.9522 26.4167 31.9181 26.5637 31.8337 26.682Z" fill="white"/>
<path fill-rule="evenodd" clip-rule="evenodd" d="M14.875 29.744C14.8753 22.4956 20.7526 16.625 28 16.625C35.2477 16.625 41.125 22.4959 41.125 29.7445C41.1292 32.9517 39.9549 36.0485 37.8253 38.4467C37.8225 38.4497 37.8197 38.453 37.8169 38.456L37.6419 38.6474L37.6389 38.6508C37.4273 38.8798 37.1704 39.0625 36.8845 39.1871C36.5987 39.3119 36.29 39.3757 35.978 39.3749C35.6663 39.374 35.358 39.3085 35.0727 39.1822C34.7879 39.0562 34.5323 38.8725 34.3221 38.6428L34.3234 38.6441L34.9672 38.0516L34.3221 38.6428C33.5175 37.7688 32.5405 37.071 31.4525 36.5938C30.3642 36.1162 29.1886 35.8697 28 35.8697C26.8115 35.8697 25.6358 36.1162 24.5474 36.5938C23.4595 37.071 22.4823 37.7689 21.6777 38.6429L21.6788 38.6418L21.0328 38.0516L21.6767 38.6441L21.6777 38.6429C21.4675 38.8727 21.212 39.0562 20.9273 39.1822C20.6421 39.3085 20.3338 39.374 20.0219 39.3749C19.7101 39.3757 19.4014 39.3119 19.1155 39.1871C18.8346 39.0646 18.5817 38.8861 18.3722 38.6627C18.3766 38.6672 18.381 38.6715 18.3852 38.6757L19.0039 38.057L18.3612 38.6508C18.3648 38.6547 18.3685 38.6586 18.3722 38.6627C18.3151 38.6043 18.2448 38.5252 18.2072 38.4829C18.1963 38.4707 18.1882 38.4615 18.1839 38.4569C18.1808 38.4535 18.1777 38.45 18.1746 38.4467C16.045 36.0483 14.8707 32.9512 14.875 29.744ZM28 18.375C21.7179 18.375 16.625 23.4634 16.625 29.7445C16.6212 32.5207 17.6367 35.2029 19.4788 37.2798C19.5228 37.3278 19.5474 37.3558 19.5654 37.3764C19.5864 37.4004 19.5986 37.4143 19.6226 37.4384C19.6308 37.4465 19.6388 37.4548 19.6467 37.4633C19.6939 37.5144 19.7512 37.5551 19.815 37.583C19.8788 37.6109 19.9476 37.6251 20.0172 37.6249C20.0868 37.6247 20.1556 37.61 20.2192 37.5819C20.2829 37.5537 20.3399 37.5127 20.3869 37.4613L20.3889 37.4591C21.3577 36.4063 22.5342 35.566 23.8443 34.9912C25.1543 34.4163 26.5694 34.1197 28 34.1197C29.4307 34.1197 30.8456 34.4163 32.1558 34.9912C33.4657 35.566 34.6423 36.4063 35.6111 37.4591L35.6132 37.4613C35.6601 37.5127 35.7172 37.5537 35.7808 37.5819C35.8445 37.61 35.9132 37.6247 35.9828 37.6249C36.0524 37.6251 36.1213 37.6109 36.1851 37.583C36.2482 37.5554 36.3052 37.5151 36.3521 37.4646L36.3534 37.4633L36.521 37.2799C38.3632 35.2031 39.3789 32.522 39.375 29.7458C39.375 23.4647 34.2821 18.375 28 18.375Z" fill="white"/>
<path fill-rule="evenodd" clip-rule="evenodd" d="M28 20.125C28.4833 20.125 28.875 20.5167 28.875 21V22.75C28.875 23.2333 28.4833 23.625 28 23.625C27.5167 23.625 27.125 23.2333 27.125 22.75V21C27.125 20.5167 27.5167 20.125 28 20.125Z" fill="white"/>
<path fill-rule="evenodd" clip-rule="evenodd" d="M34.125 29.75C34.125 29.2667 34.5167 28.875 35 28.875H36.75C37.2333 28.875 37.625 29.2667 37.625 29.75C37.625 30.2333 37.2333 30.625 36.75 30.625H35C34.5167 30.625 34.125 30.2333 34.125 29.75Z" fill="white"/>
<path fill-rule="evenodd" clip-rule="evenodd" d="M18.375 29.75C18.375 29.2667 18.7667 28.875 19.25 28.875H21C21.4833 28.875 21.875 29.2667 21.875 29.75C21.875 30.2333 21.4833 30.625 21 30.625H19.25C18.7667 30.625 18.375 30.2333 18.375 29.75Z" fill="white"/>
<path fill-rule="evenodd" clip-rule="evenodd" d="M21.194 22.9439C21.5357 22.6022 22.0897 22.6022 22.4315 22.9439L23.669 24.1815C24.0107 24.5232 24.0107 25.0773 23.669 25.419C23.3273 25.7607 22.7733 25.7607 22.4316 25.419L21.194 24.1814C20.8523 23.8397 20.8523 23.2856 21.194 22.9439Z" fill="white"/>
<path fill-rule="evenodd" clip-rule="evenodd" d="M34.8063 22.9439C35.1481 23.2856 35.1481 23.8397 34.8063 24.1814L33.5687 25.419C33.227 25.7607 32.673 25.7607 32.3313 25.419C31.9895 25.0773 31.9895 24.5232 32.3313 24.1815L33.5689 22.9439C33.9106 22.6022 34.4646 22.6022 34.8063 22.9439Z" fill="white"/>
</mask>
<g mask="url(#mask0_12_115)">
<path d="M15.7496 30.4445C16.1362 30.4448 16.4498 30.1316 16.4501 29.745C16.4504 29.3584 16.1372 29.0448 15.7506 29.0445L15.7496 30.4445ZM14.8751 29.744L14.8746 30.444L15.7496 30.4445L15.7501 29.7445L15.7506 29.0445L14.8756 29.044L14.8751 29.744ZM31.8337 26.682L30.6941 25.8688C30.6783 25.8909 30.6632 25.9135 30.6488 25.9365L31.8337 26.682ZM29.236 30.8109L30.3714 31.6301C30.3886 31.6061 30.4053 31.5815 30.421 31.5564L29.236 30.8109ZM28.8533 31.1937L29.6542 32.342C29.6604 32.3378 29.6664 32.3334 29.6724 32.3291L28.8533 31.1937ZM26.9392 28.5141L26.1936 27.3291C26.1661 27.3464 26.1391 27.3647 26.1128 27.384L26.9392 28.5141ZM31.0681 25.9164L31.8136 27.1014C31.8322 27.0897 31.8507 27.0775 31.8687 27.0649L31.0681 25.9164ZM31.7079 25.9164L32.5274 24.7813C32.5211 24.7768 32.5148 24.7723 32.5085 24.7679L31.7079 25.9164ZM14.8751 29.744L16.2751 29.7458V29.744H14.8751ZM40.2501 29.7445L40.2481 28.3445C39.4753 28.3457 38.8495 28.9727 38.8501 29.7455C38.8507 30.5183 39.4773 31.1445 40.2501 31.1445V29.7445ZM41.1251 29.7433H42.5251C42.5251 29.3717 42.3774 29.0153 42.1143 28.7526C41.8514 28.4901 41.4948 28.3429 41.1231 28.3433L41.1251 29.7433ZM37.642 38.6474L38.6726 39.5949L38.6752 39.5921L37.642 38.6474ZM37.639 38.6508L38.6674 39.6007L38.6696 39.5983L37.639 38.6508ZM34.3235 38.6441L33.2934 39.5923C33.817 40.161 34.7025 40.1978 35.2714 39.6743L34.3235 38.6441ZM34.9673 38.0516L35.9153 39.0817C36.4835 38.5588 36.5211 37.6746 35.9991 37.1053C35.4772 36.5362 34.593 36.4972 34.0229 37.0181L34.9673 38.0516ZM34.3214 38.6418L33.3769 37.6083C33.1028 37.8588 32.9394 38.208 32.9228 38.5791C32.9061 38.9501 33.0376 39.3126 33.2882 39.5865L34.3214 38.6418ZM21.6789 38.6418L22.7112 39.5875C22.9622 39.3134 23.094 38.9509 23.0775 38.5797C23.061 38.2084 22.8976 37.8589 22.6232 37.6083L21.6789 38.6418ZM21.0329 38.0516L21.9773 37.0181C21.4072 36.4972 20.523 36.5362 20.0011 37.1053C19.4791 37.6746 19.5167 38.5588 20.0849 39.0817L21.0329 38.0516ZM21.6768 38.6441L20.7288 39.6743C21.0021 39.9258 21.3642 40.0583 21.7353 40.0428C22.1064 40.0273 22.4561 39.865 22.7075 39.5914L21.6768 38.6441ZM18.3853 38.6757L17.3953 39.6656C17.6579 39.9283 18.014 40.0757 18.3853 40.0757C18.7566 40.0757 19.1127 39.9283 19.3752 39.6656L18.3853 38.6757ZM19.004 38.057L19.994 39.047C20.5331 38.5078 20.5417 37.6366 20.0134 37.0868C19.4851 36.5372 18.6141 36.5113 18.0541 37.0286L19.004 38.057ZM18.3613 38.6508L17.4113 37.6223C16.8434 38.1469 16.8082 39.0326 17.3328 39.6005L18.3613 38.6508ZM19.4789 37.2798L18.4316 38.2087C18.4364 38.2141 18.4412 38.2194 18.4461 38.2248L19.4789 37.2798ZM20.387 37.4613L19.3548 36.5155L19.3535 36.5169L20.387 37.4613ZM20.389 37.4591L19.3588 36.511L19.3569 36.5133L20.389 37.4591ZM35.6112 37.4591L36.643 36.5128L36.6413 36.5112L35.6112 37.4591ZM35.6133 37.4613L36.6468 36.517L36.645 36.5151L35.6133 37.4613ZM36.3522 37.4646L37.3774 38.4181L37.3793 38.416L36.3522 37.4646ZM36.3535 37.4633L37.3805 38.4147L37.3867 38.408L36.3535 37.4633ZM36.5211 37.2799L37.5544 38.2246C37.559 38.2194 37.5638 38.2143 37.5684 38.2089L36.5211 37.2799ZM39.3751 29.7458L37.9751 29.7445V29.7471L39.3751 29.7458ZM31.8337 26.682L30.6488 25.9365L28.0511 30.0654L29.236 30.8109L30.421 31.5564L33.0187 27.4276L31.8337 26.682ZM29.236 30.8109L28.1008 29.9918C28.0823 30.0174 28.0597 30.0399 28.0341 30.0584L28.8533 31.1937L29.6724 32.3291C29.9413 32.135 30.1774 31.899 30.3714 31.6301L29.236 30.8109ZM28.8533 31.1937L28.0522 30.0455C27.999 30.0826 27.9332 30.0973 27.8692 30.0863L27.6314 31.466L27.3935 32.8457C28.1841 32.9819 28.9963 32.8009 29.6542 32.342L28.8533 31.1937ZM27.6314 31.466L27.8692 30.0863C27.8052 30.0752 27.7482 30.0395 27.7104 29.9866L26.5712 30.8004L25.432 31.6141C25.8982 32.2668 26.603 32.7093 27.3935 32.8457L27.6314 31.466ZM26.5712 30.8004L27.7104 29.9866C27.6727 29.9338 27.6573 29.8682 27.6676 29.804L26.2854 29.5816L24.9032 29.3591C24.7757 30.1511 24.9657 30.9614 25.432 31.6141L26.5712 30.8004ZM26.2854 29.5816L27.6676 29.804C27.6779 29.7399 27.7131 29.6825 27.7655 29.6442L26.9392 28.5141L26.1128 27.384C25.4653 27.8574 25.0307 28.5671 24.9032 29.3591L26.2854 29.5816ZM26.9392 28.5141L27.6847 29.699L31.8136 27.1014L31.0681 25.9164L30.3226 24.7314L26.1936 27.3291L26.9392 28.5141ZM31.0681 25.9164L31.8687 27.0649C31.7276 27.1632 31.5599 27.2159 31.388 27.2159V25.8159V24.4159C30.9873 24.4159 30.5963 24.5388 30.2675 24.7679L31.0681 25.9164ZM31.388 25.8159V27.2159C31.2162 27.2159 31.0483 27.1632 30.9073 27.0649L31.7079 25.9164L32.5085 24.7679C32.1798 24.5388 31.7888 24.4159 31.388 24.4159V25.8159ZM31.7079 25.9164L30.8884 27.0515C30.7063 26.92 30.5837 26.7218 30.5473 26.5002L31.9288 26.2733L33.3103 26.0463C33.2267 25.5378 32.9453 25.083 32.5274 24.7813L31.7079 25.9164ZM31.9288 26.2733L30.5473 26.5002C30.5109 26.2786 30.5636 26.0516 30.6941 25.8688L31.8337 26.682L32.9733 27.4953C33.2726 27.0758 33.3937 26.5548 33.3103 26.0463L31.9288 26.2733ZM28.0001 16.625V15.225C19.9804 15.225 13.4755 21.7215 13.4751 29.7438L14.8751 29.744H16.2751C16.2754 23.2697 21.5251 18.025 28.0001 18.025V16.625ZM41.1251 29.7433H42.5251C42.5251 21.7206 36.02 15.225 28.0001 15.225V16.625V18.025C34.4754 18.025 39.7251 23.27 39.7251 29.7445L41.1251 29.7433ZM40.2501 29.7445V31.1445H41.1251V29.7433V28.3445H40.2501V29.7445ZM41.1251 29.7433L41.1231 28.3433L40.2481 28.3445L40.2501 29.7445L40.2521 31.1445L41.1271 31.1433L41.1251 29.7433ZM37.8254 38.4467L38.8722 39.3763C41.2297 36.7214 42.5297 33.2937 42.5251 29.7433H41.1251L39.7251 29.7464C39.7289 32.6102 38.6803 35.3756 36.7787 37.5171L37.8254 38.4467ZM37.817 38.456L38.8502 39.4008C38.8574 39.3929 38.8648 39.3847 38.8722 39.3763L37.8254 38.4467L36.7787 37.5171C36.7805 37.5151 36.7822 37.5131 36.7836 37.5116L37.817 38.456ZM37.642 38.6474L38.6752 39.5921L38.8502 39.4008L37.817 38.456L36.7836 37.5116L36.6087 37.7028L37.642 38.6474ZM37.639 38.6508L38.6696 39.5983L38.6726 39.5949L37.642 38.6474L36.6114 37.6999L36.6087 37.7028L37.639 38.6508ZM36.8846 39.1871L37.4441 40.4705C37.9078 40.2683 38.3243 39.9721 38.6674 39.6007L37.639 38.6508L36.6114 37.6999C36.5313 37.7867 36.4333 37.8567 36.3251 37.9039L36.8846 39.1871ZM35.9781 39.3749L35.9744 40.7749C36.4802 40.7763 36.9804 40.6725 37.4441 40.4705L36.8846 39.1871L36.3251 37.9039C36.2168 37.9511 36.0999 37.9751 35.9819 37.9749L35.9781 39.3749ZM35.0728 39.1822L34.5063 40.4625C34.9689 40.6672 35.4687 40.7735 35.9744 40.7749L35.9781 39.3749L35.9819 37.9749C35.8639 37.9746 35.7473 37.9498 35.6393 37.9019L35.0728 39.1822ZM34.3214 38.6418L33.2892 39.5877C33.6301 39.9603 34.0445 40.2583 34.5063 40.4625L35.0728 39.1822L35.6393 37.9019C35.5315 37.8543 35.4348 37.7847 35.3551 37.6978L34.3214 38.6418ZM34.3214 38.6418L33.2922 39.591L33.2934 39.5923L34.3235 38.6441L35.3535 37.6958L35.3522 37.6946L34.3214 38.6418ZM34.3235 38.6441L35.2714 39.6743L35.9153 39.0817L34.9673 38.0516L34.0193 37.0213L33.3754 37.6138L34.3235 38.6441ZM34.9673 38.0516L34.0229 37.0181L33.3769 37.6083L34.3214 38.6418L35.2657 39.6753L35.9116 39.0851L34.9673 38.0516ZM34.3214 38.6418L33.2882 39.5865L33.2892 39.5877L34.3214 38.6418ZM31.4526 36.5938L30.8903 37.8757C31.8008 38.2753 32.6187 38.8595 33.2922 39.591L34.3214 38.6418L35.3522 37.6946C34.4166 36.6782 33.2803 35.8667 32.0152 35.3116L31.4526 36.5938ZM28.0001 35.8697V37.2697C28.9951 37.2697 29.9791 37.476 30.8903 37.8757L31.4526 36.5938L32.0152 35.3116C30.7494 34.7564 29.3823 34.4697 28.0001 34.4697V35.8697ZM24.5475 36.5938L25.11 37.8757C26.0211 37.476 27.0052 37.2697 28.0001 37.2697V35.8697V34.4697C26.6179 34.4697 25.2507 34.7564 23.985 35.3116L24.5475 36.5938ZM21.6778 38.6429L22.7075 39.5914C23.381 38.8597 24.1993 38.2753 25.11 37.8757L24.5475 36.5938L23.985 35.3116C22.7198 35.8669 21.5835 36.6783 20.6478 37.6949L21.6778 38.6429ZM21.6778 38.6429L22.7101 39.5886L22.7112 39.5875L21.6789 38.6418L20.6465 37.6961L20.6455 37.6972L21.6778 38.6429ZM21.6789 38.6418L22.6232 37.6083L21.9773 37.0181L21.0329 38.0516L20.0885 39.0851L20.7345 39.6753L21.6789 38.6418ZM21.0329 38.0516L20.0849 39.0817L20.7288 39.6743L21.6768 38.6441L22.6248 37.6138L21.9809 37.0213L21.0329 38.0516ZM21.6768 38.6441L22.7075 39.5914L21.6778 38.6429L20.6478 37.6949L20.6465 37.6961L21.6768 38.6441ZM20.9274 39.1822L21.4939 40.4625C21.9555 40.2583 22.3704 39.9599 22.7112 39.5875L21.6778 38.6429L20.6455 37.6972C20.5659 37.7842 20.4687 37.8543 20.3609 37.9019L20.9274 39.1822ZM20.022 39.3749L20.0258 40.7749C20.5315 40.7735 21.0314 40.6672 21.4939 40.4625L20.9274 39.1822L20.3609 37.9019C20.253 37.9498 20.1363 37.9746 20.0182 37.9749L20.022 39.3749ZM19.1156 39.1871L18.5561 40.4705C19.0196 40.6725 19.5201 40.7763 20.0258 40.7749L20.022 39.3749L20.0182 37.9749C19.9002 37.9751 19.7834 37.9511 19.6752 37.9039L19.1156 39.1871ZM18.3723 38.6627L17.3508 39.62C17.6905 39.9825 18.1006 40.2718 18.5561 40.4705L19.1156 39.1871L19.6752 37.9039C19.5689 37.8574 19.4731 37.7899 19.3939 37.7054L18.3723 38.6627ZM18.3723 38.6627L17.3718 39.642C17.3795 39.6498 17.3874 39.6577 17.3953 39.6656L18.3853 38.6757L19.3752 37.6858C19.3748 37.6853 19.374 37.6845 19.3729 37.6834L18.3723 38.6627ZM18.3853 38.6757L19.3752 39.6656L19.994 39.047L19.004 38.057L18.0141 37.0671L17.3953 37.6858L18.3853 38.6757ZM19.004 38.057L18.0541 37.0286L17.4113 37.6223L18.3613 38.6508L19.3112 39.6791L19.9539 39.0855L19.004 38.057ZM18.3613 38.6508L17.3328 39.6005C17.3388 39.6071 17.3449 39.6137 17.3508 39.62L18.3723 38.6627L19.3939 37.7054C19.3924 37.7038 19.391 37.7023 19.3898 37.7009L18.3613 38.6508ZM18.2073 38.4829L17.1611 39.4132C17.1935 39.4496 17.2868 39.555 17.3718 39.642L18.3723 38.6627L19.3729 37.6834C19.3618 37.672 19.343 37.652 19.3182 37.6249C19.2947 37.599 19.2725 37.5739 19.2535 37.5526L18.2073 38.4829ZM18.184 38.4569L17.1519 39.4029C17.1502 39.401 17.149 39.3996 17.1483 39.3989C17.1511 39.402 17.1553 39.4068 17.1611 39.4132L18.2073 38.4829L19.2535 37.5526C19.2473 37.5456 19.2295 37.5256 19.2161 37.5109L18.184 38.4569ZM18.1747 38.4467L17.1279 39.3763C17.1357 39.3851 17.1437 39.394 17.1519 39.4029L18.184 38.4569L19.2161 37.5109C19.2181 37.513 19.2198 37.515 19.2215 37.5169L18.1747 38.4467ZM14.8751 29.744L13.4751 29.742C13.4704 33.2927 14.7703 36.7213 17.1279 39.3763L18.1747 38.4467L19.2215 37.5169C17.3198 35.3753 16.2713 32.6098 16.2751 29.7458L14.8751 29.744ZM16.6251 29.7445L18.0251 29.7455C18.0251 24.2384 22.4904 19.775 28.0001 19.775V18.375V16.975C20.9456 16.975 15.2251 22.6894 15.2251 29.7445H16.6251ZM16.6251 29.7445L18.0251 29.7476V29.7455L16.6251 29.7445ZM19.4789 37.2798L20.5263 36.3507C18.9118 34.5306 18.0217 32.1808 18.0251 29.7476L16.6251 29.7445H15.2251C15.2208 32.8637 16.3619 35.8753 18.4316 38.2087L19.4789 37.2798ZM19.5655 37.3764L20.6184 36.4538C20.597 36.4294 20.5652 36.393 20.5118 36.3346L19.4789 37.2798L18.4461 38.2248C18.4807 38.2626 18.4979 38.2823 18.5126 38.2991L19.5655 37.3764ZM19.6227 37.4384L20.6127 36.4483C20.6127 36.4483 20.6143 36.45 20.6172 36.4529C20.6201 36.456 20.6231 36.4592 20.6257 36.462C20.6281 36.4647 20.6292 36.4659 20.6281 36.4647C20.6265 36.4629 20.6243 36.4603 20.6184 36.4538L19.5655 37.3764L18.5126 38.2991C18.5377 38.3278 18.5748 38.3702 18.6328 38.4283L19.6227 37.4384ZM19.6468 37.4633L20.6752 36.5134C20.6548 36.4913 20.634 36.4697 20.6127 36.4483L19.6227 37.4384L18.6328 38.4283C18.6279 38.4233 18.6231 38.4184 18.6184 38.4133L19.6468 37.4633ZM19.8151 37.583L20.3746 36.2996C20.4886 36.3493 20.5909 36.4221 20.6752 36.5134L19.6468 37.4633L18.6184 38.4133C18.7971 38.6068 19.014 38.761 19.2555 38.8664L19.8151 37.583ZM20.0173 37.6249L20.0135 36.2249C20.1378 36.2246 20.2607 36.2501 20.3746 36.2996L19.8151 37.583L19.2555 38.8664C19.497 38.9717 19.7577 39.0256 20.0211 39.0249L20.0173 37.6249ZM20.2193 37.5819L19.6529 36.3016C19.7665 36.2513 19.8893 36.2253 20.0135 36.2249L20.0173 37.6249L20.0211 39.0249C20.2845 39.0242 20.5449 38.9687 20.7858 38.8622L20.2193 37.5819ZM20.387 37.4613L19.3535 36.5169C19.4373 36.4252 19.5392 36.3518 19.6529 36.3016L20.2193 37.5819L20.7858 38.8622C21.0267 38.7556 21.2428 38.6002 21.4205 38.4056L20.387 37.4613ZM20.389 37.4591L19.3569 36.5133L19.3548 36.5155L20.387 37.4613L21.4191 38.4072L21.4205 38.4056L20.389 37.4591ZM23.8444 34.9912L23.2819 33.7092C21.7945 34.3617 20.4587 35.3157 19.3588 36.511L20.389 37.4591L21.4191 38.4072C22.2567 37.4969 23.2741 36.7703 24.4069 36.2732L23.8444 34.9912ZM28.0001 34.1197V32.7197C26.3759 32.7197 24.7693 33.0565 23.2819 33.7092L23.8444 34.9912L24.4069 36.2732C25.5396 35.7762 26.7631 35.5197 28.0001 35.5197V34.1197ZM32.1559 34.9912L32.7184 33.7092C31.231 33.0565 29.6244 32.7197 28.0001 32.7197V34.1197V35.5197C29.2371 35.5197 30.4606 35.7762 31.5933 36.2732L32.1559 34.9912ZM35.6112 37.4591L36.6413 36.5112C35.5416 35.3158 34.2057 34.3617 32.7184 33.7092L32.1559 34.9912L31.5933 36.2732C32.7261 36.7703 33.7433 37.4968 34.5809 38.407L35.6112 37.4591ZM35.6133 37.4613L36.645 36.5151L36.643 36.5128L35.6112 37.4591L34.5794 38.4054L34.5809 38.407L35.6133 37.4613ZM35.7809 37.5819L36.3473 36.3016C36.461 36.3518 36.5629 36.4252 36.6468 36.517L35.6133 37.4613L34.5794 38.4054C34.7572 38.6 34.9735 38.7556 35.2144 38.8622L35.7809 37.5819ZM35.9829 37.6249L35.9867 36.2249C36.111 36.2253 36.2338 36.2513 36.3473 36.3016L35.7809 37.5819L35.2144 38.8622C35.4554 38.9687 35.7158 39.0242 35.9791 39.0249L35.9829 37.6249ZM36.1852 37.583L35.6256 36.2996C35.7394 36.2501 35.8625 36.2246 35.9867 36.2249L35.9829 37.6249L35.9791 39.0249C36.2426 39.0256 36.5033 38.9717 36.7446 38.8664L36.1852 37.583ZM36.3522 37.4646L35.3271 36.5112C35.411 36.4209 35.5128 36.3488 35.6256 36.2996L36.1852 37.583L36.7446 38.8664C36.984 38.7621 37.1995 38.6093 37.3774 38.4181L36.3522 37.4646ZM36.3535 37.4633L35.3271 36.5112L35.3253 36.5131L36.3522 37.4646L37.3793 38.416L37.3805 38.4147L36.3535 37.4633ZM36.5211 37.2799L35.4877 36.3353L35.3201 36.5187L36.3535 37.4633L37.3867 38.408L37.5544 38.2246L36.5211 37.2799ZM39.3751 29.7458L37.9751 29.7471C37.9785 32.1804 37.0883 34.5307 35.4737 36.351L36.5211 37.2799L37.5684 38.2089C39.6383 35.8754 40.7794 32.8632 40.7751 29.7438L39.3751 29.7458ZM39.3751 29.7458L40.7751 29.7438V29.742L39.3751 29.7458ZM28.0001 18.375V19.775C33.5098 19.775 37.9751 24.2374 37.9751 29.7445L39.3751 29.7458L40.7751 29.7438C40.7751 22.6887 35.0546 16.975 28.0001 16.975V18.375ZM28.8751 21H30.2751C30.2751 19.7436 29.2566 18.725 28.0001 18.725V20.125V21.525C27.7102 21.525 27.4751 21.29 27.4751 21H28.8751ZM28.8751 22.75H30.2751V21H28.8751H27.4751V22.75H28.8751ZM28.0001 23.625V25.025C29.2566 25.025 30.2751 24.0064 30.2751 22.75H28.8751H27.4751C27.4751 22.46 27.7102 22.225 28.0001 22.225V23.625ZM27.1251 22.75H25.7251C25.7251 24.0064 26.7437 25.025 28.0001 25.025V23.625V22.225C28.29 22.225 28.5251 22.46 28.5251 22.75H27.1251ZM27.1251 21H25.7251V22.75H27.1251H28.5251V21H27.1251ZM28.0001 20.125V18.725C26.7437 18.725 25.7251 19.7436 25.7251 21H27.1251H28.5251C28.5251 21.29 28.29 21.525 28.0001 21.525V20.125ZM35.0001 28.875V27.475C33.7436 27.475 32.7251 28.4935 32.7251 29.75H34.1251H35.5251C35.5251 30.0399 35.29 30.275 35.0001 30.275V28.875ZM36.7501 28.875V27.475H35.0001V28.875V30.275H36.7501V28.875ZM37.6251 29.75H39.0251C39.0251 28.4935 38.0066 27.475 36.7501 27.475V28.875V30.275C36.4602 30.275 36.2251 30.0399 36.2251 29.75H37.6251ZM36.7501 30.625V32.025C38.0066 32.025 39.0251 31.0065 39.0251 29.75H37.6251H36.2251C36.2251 29.4601 36.4602 29.225 36.7501 29.225V30.625ZM35.0001 30.625V32.025H36.7501V30.625V29.225H35.0001V30.625ZM34.1251 29.75H32.7251C32.7251 31.0065 33.7436 32.025 35.0001 32.025V30.625V29.225C35.29 29.225 35.5251 29.4601 35.5251 29.75H34.1251ZM19.2501 28.875V27.475C17.9937 27.475 16.9751 28.4935 16.9751 29.75H18.3751H19.7751C19.7751 30.0399 19.5401 30.275 19.2501 30.275V28.875ZM21.0001 28.875V27.475H19.2501V28.875V30.275H21.0001V28.875ZM21.8751 29.75H23.2751C23.2751 28.4935 22.2566 27.475 21.0001 27.475V28.875V30.275C20.7102 30.275 20.4751 30.0399 20.4751 29.75H21.8751ZM21.0001 30.625V32.025C22.2566 32.025 23.2751 31.0065 23.2751 29.75H21.8751H20.4751C20.4751 29.4601 20.7102 29.225 21.0001 29.225V30.625ZM19.2501 30.625V32.025H21.0001V30.625V29.225H19.2501V30.625ZM18.3751 29.75H16.9751C16.9751 31.0065 17.9937 32.025 19.2501 32.025V30.625V29.225C19.5401 29.225 19.7751 29.4601 19.7751 29.75H18.3751ZM22.4315 22.9439L23.4214 21.954C22.533 21.0655 21.0925 21.0655 20.2041 21.954L21.1941 22.9439L22.184 23.9339C21.979 24.1389 21.6466 24.1389 21.4415 23.9339L22.4315 22.9439ZM23.6691 24.1815L24.659 23.1916L23.4214 21.954L22.4315 22.9439L21.4415 23.9339L22.6791 25.1715L23.6691 24.1815ZM23.6691 25.419L24.659 26.4089C25.5475 25.5205 25.5475 24.08 24.659 23.1916L23.6691 24.1815L22.6791 25.1715C22.4741 24.9664 22.4741 24.634 22.6791 24.429L23.6691 25.419ZM22.4316 25.419L21.4417 26.4089C22.3301 27.2973 23.7706 27.2973 24.659 26.4089L23.6691 25.419L22.6791 24.429C22.8841 24.224 23.2166 24.224 23.4216 24.429L22.4316 25.419ZM21.1941 24.1814L20.2041 25.1713L21.4417 26.4089L22.4316 25.419L23.4216 24.429L22.184 23.1914L21.1941 24.1814ZM21.1941 22.9439L20.2041 21.954C19.3157 22.8424 19.3157 24.2829 20.2041 25.1713L21.1941 24.1814L22.184 23.1914C22.389 23.3964 22.389 23.7289 22.184 23.9339L21.1941 22.9439ZM34.8062 24.1814L35.7961 25.1713C36.6846 24.2829 36.6846 22.8424 35.7961 21.954L34.8062 22.9439L33.8163 23.9339C33.6112 23.7289 33.6112 23.3964 33.8163 23.1914L34.8062 24.1814ZM33.5686 25.419L34.5585 26.4089L35.7961 25.1713L34.8062 24.1814L33.8163 23.1914L32.5787 24.429L33.5686 25.419ZM32.3311 25.419L31.3412 26.4089C32.2296 27.2973 33.6701 27.2973 34.5585 26.4089L33.5686 25.419L32.5787 24.429C32.7836 24.224 33.1161 24.224 33.3211 24.429L32.3311 25.419ZM32.3311 24.1815L31.3412 23.1916C30.4528 24.08 30.4528 25.5205 31.3412 26.4089L32.3311 25.419L33.3211 24.429C33.5262 24.634 33.5262 24.9664 33.3211 25.1715L32.3311 24.1815ZM33.5687 22.9439L32.5788 21.954L31.3412 23.1916L32.3311 24.1815L33.3211 25.1715L34.5587 23.9339L33.5687 22.9439ZM34.8062 22.9439L35.7961 21.954C34.9077 21.0655 33.4672 21.0655 32.5788 21.954L33.5687 22.9439L34.5587 23.9339C34.3537 24.1389 34.0212 24.1389 33.8163 23.9339L34.8062 22.9439Z" fill="url(#paint1_linear_12_115)"/>
</g>
<defs>
<linearGradient id="paint0_linear_12_115" x1="56" y1="28" x2="0" y2="28" gradientUnits="userSpaceOnUse">
<stop stop-color="#9333EA"/>
<stop offset="1" stop-color="#2563EB"/>
</linearGradient>
<linearGradient id="paint1_linear_12_115" x1="28.0001" y1="16.625" x2="28.0001" y2="39.3749" gradientUnits="userSpaceOnUse">
<stop stop-color="#9333EA"/>
<stop offset="1" stop-color="#2563EB"/>
</linearGradient>
</defs>
</svg>
