<svg width="56" height="56" viewBox="0 0 56 56" fill="none" xmlns="http://www.w3.org/2000/svg">
<circle cx="28" cy="28" r="26.5" fill="url(#paint0_linear_12_114)" fill-opacity="0.15" stroke="white" stroke-width="3"/>
<path d="M35 26.6667C35 25.5 33.8334 24.3333 31.5 24.3333C31.1475 24.3333 30.7475 24.3333 30.3335 24.3333C28.4007 24.3333 26.8333 22.7663 26.8333 20.8333V17.3333M35 39.5H38.5V29H35V34.25M35 39.5V34.25M35 39.5H17.5V34.8334L21.5833 31.3334L26.25 34.25L30.9166 31.3334L35 34.25M38.5 26.6667C38.5 19.6667 33.8334 19.6667 33.8334 19.6667C33.8334 19.6667 38.5 20.25 38.5 17.3333" stroke="url(#paint1_linear_12_114)" stroke-width="1.68" stroke-linecap="round" stroke-linejoin="round"/>
<defs>
<linearGradient id="paint0_linear_12_114" x1="56" y1="28" x2="0" y2="28" gradientUnits="userSpaceOnUse">
<stop stop-color="#9333EA"/>
<stop offset="1" stop-color="#2563EB"/>
</linearGradient>
<linearGradient id="paint1_linear_12_114" x1="28" y1="17.3333" x2="28" y2="39.5" gradientUnits="userSpaceOnUse">
<stop stop-color="#9333EA"/>
<stop offset="1" stop-color="#2563EB"/>
</linearGradient>
</defs>
</svg>
