<svg width="20" height="20" viewBox="0 0 20 20" fill="none" xmlns="http://www.w3.org/2000/svg">
<path d="M14.1667 16.6667H18.3333V15C18.3333 13.6193 17.214 12.5 15.8333 12.5C15.037 12.5 14.3276 12.8723 13.8698 13.4524M14.1667 16.6667H5.83332M14.1667 16.6667V15C14.1667 14.4531 14.0613 13.9309 13.8698 13.4524M5.83332 16.6667H1.66666V15C1.66666 13.6193 2.78594 12.5 4.16666 12.5C4.963 12.5 5.67237 12.8723 6.13019 13.4524M5.83332 16.6667V15C5.83332 14.4531 5.93868 13.9309 6.13019 13.4524M6.13019 13.4524C6.74458 11.9175 8.24567 10.8333 9.99999 10.8333C11.7543 10.8333 13.2554 11.9175 13.8698 13.4524M12.5 5.83334C12.5 7.21406 11.3807 8.33334 9.99999 8.33334C8.61928 8.33334 7.49999 7.21406 7.49999 5.83334C7.49999 4.45263 8.61928 3.33334 9.99999 3.33334C11.3807 3.33334 12.5 4.45263 12.5 5.83334ZM17.5 8.33334C17.5 9.25382 16.7538 10 15.8333 10C14.9128 10 14.1667 9.25382 14.1667 8.33334C14.1667 7.41287 14.9128 6.66668 15.8333 6.66668C16.7538 6.66668 17.5 7.41287 17.5 8.33334ZM5.83332 8.33334C5.83332 9.25382 5.08713 10 4.16666 10C3.24618 10 2.49999 9.25382 2.49999 8.33334C2.49999 7.41287 3.24618 6.66668 4.16666 6.66668C5.08713 6.66668 5.83332 7.41287 5.83332 8.33334Z" stroke="url(#paint0_linear_13_128)" stroke-width="1.5" stroke-linecap="round" stroke-linejoin="round"/>
<defs>
<linearGradient id="paint0_linear_13_128" x1="9.99999" y1="3.33334" x2="9.99999" y2="16.6667" gradientUnits="userSpaceOnUse">
<stop stop-color="#9333EA"/>
<stop offset="1" stop-color="#2563EB"/>
</linearGradient>
</defs>
</svg>
